<?xml version="1.0" standalone="no"?>
<!DOCTYPE svg PUBLIC "-//W3C//DTD SVG 20010904//EN"
 "http://www.w3.org/TR/2001/REC-SVG-20010904/DTD/svg10.dtd">
<svg version="1.0" xmlns="http://www.w3.org/2000/svg"
 width="300.000000pt" height="300.000000pt" viewBox="0 0 300.000000 300.000000"
 preserveAspectRatio="xMidYMid meet">
<metadata>
Created by potrace 1.14, written by Peter Selinger 2001-2017
</metadata>
<g transform="translate(0.000000,300.000000) scale(0.100000,-0.100000)"
fill="#000000" stroke="none">
<path d="M423 2814 c-46 -23 -57 -54 -68 -200 -4 -49 -8 -100 -10 -114 -2 -14
-7 -61 -10 -105 -3 -44 -8 -93 -10 -110 -6 -52 -20 -201 -30 -315 -3 -41 -8
-88 -10 -105 -2 -16 -6 -61 -10 -100 -3 -38 -8 -86 -10 -105 -3 -19 -7 -64
-10 -100 -3 -36 -8 -87 -11 -115 -3 -27 -7 -72 -9 -100 -8 -94 -16 -170 -20
-210 -8 -64 -15 -135 -21 -205 -2 -36 -7 -81 -9 -100 -2 -19 -7 -64 -10 -100
-3 -36 -8 -76 -10 -90 -11 -76 -19 -186 -19 -265 0 -72 4 -98 21 -130 62 -117
193 -159 344 -110 122 40 790 296 874 335 11 5 65 28 120 50 l99 40 81 -49
c132 -81 290 -137 435 -157 55 -7 224 -7 265 0 17 3 50 8 75 11 89 12 260 76
296 110 44 42 47 98 8 144 -40 47 -76 49 -187 7 -512 -192 -1047 95 -1172 629
-21 89 -22 266 -1 361 102 475 556 773 1032 680 76 -15 204 -64 265 -102 53
-33 98 -37 137 -14 57 35 69 108 26 160 -36 43 -207 124 -329 156 -86 23 -121
27 -255 28 -85 1 -175 -2 -200 -6 -225 -38 -466 -168 -621 -336 -139 -151
-252 -378 -274 -552 -4 -30 -9 -58 -12 -62 -2 -4 -4 -61 -4 -125 0 -240 63
-438 207 -644 l52 -76 -306 -123 c-358 -143 -597 -233 -682 -257 -86 -24 -87
-22 -71 139 8 73 15 151 17 173 2 22 5 58 8 80 3 22 8 72 11 110 3 39 8 84 10
100 2 17 7 62 10 100 3 39 8 81 10 95 2 14 7 59 10 100 3 41 8 91 10 110 2 19
7 69 11 110 4 41 8 89 10 105 2 17 6 64 9 105 3 41 8 91 10 110 2 19 7 64 10
100 3 36 8 81 10 100 2 19 6 71 10 115 4 44 8 91 10 105 2 14 7 59 10 100 4
41 8 89 10 105 2 17 6 62 10 100 3 39 8 90 11 115 9 95 6 138 -13 164 -34 47
-84 57 -140 30z"/>
</g>
</svg>
